<?xml version="1.0" standalone="no"?>
<!DOCTYPE svg PUBLIC "-//W3C//DTD SVG 20010904//EN"
 "http://www.w3.org/TR/2001/REC-SVG-20010904/DTD/svg10.dtd">
<svg version="1.0" xmlns="http://www.w3.org/2000/svg"
 width="576.000000pt" height="576.000000pt" viewBox="0 0 576.000000 576.000000"
 preserveAspectRatio="xMidYMid meet">
<metadata>
Created by potrace 1.11, written by Peter Selinger 2001-2013
</metadata>
<g transform="translate(0.000000,576.000000) scale(0.100000,-0.100000)"
fill="#000000" stroke="none">
<path d="M1973 5494 c-47 -17 -113 -76 -140 -126 -17 -31 -18 -85 -21 -850
l-2 -818 -494 0 -493 0 -44 -23 c-116 -60 -114 -218 3 -278 35 -18 66 -19 533
-19 l495 0 0 -200 0 -200 -835 0 c-895 0 -880 1 -926 -49 -26 -27 -49 -77 -49
-104 0 -65 49 -134 110 -155 24 -9 257 -12 866 -12 l834 0 0 -180 0 -180 -487
-1 c-269 0 -495 -2 -504 -4 -29 -5 -66 -30 -91 -60 -48 -57 -47 -137 0 -191
59 -67 24 -63 575 -64 276 0 502 -2 504 -3 1 -2 3 -348 3 -769 1 -834 -2 -786
56 -864 30 -40 100 -81 152 -90 77 -12 126 3 225 69 51 33 94 65 95 69 2 4 10
8 17 8 7 0 15 3 17 8 2 4 46 36 98 71 52 36 97 68 100 71 3 3 23 17 45 30 22
13 45 28 50 33 6 5 84 60 175 122 91 63 173 120 182 127 22 17 42 31 103 70
28 18 55 36 60 41 33 27 267 187 275 187 4 0 10 4 12 8 2 5 68 53 148 107 80
55 147 101 150 104 3 4 32 24 65 46 33 22 62 42 65 45 3 4 23 17 45 30 22 13
42 27 45 30 3 3 61 44 130 91 69 46 127 87 130 90 3 3 48 34 100 70 52 35 97
66 100 69 3 3 13 10 22 15 26 16 249 169 262 180 6 6 38 28 71 51 33 22 103
70 155 106 52 36 167 115 255 176 88 61 165 114 170 119 6 4 39 28 75 52 164
111 187 128 221 162 73 73 88 200 35 292 -31 52 -51 69 -182 157 -53 36 -109
75 -124 88 -15 12 -33 22 -39 22 -6 0 -11 4 -11 9 0 5 -13 14 -30 21 -16 7
-30 16 -30 20 0 3 -24 22 -52 41 -29 18 -128 85 -219 149 -91 63 -173 120
-181 125 -9 6 -80 55 -159 110 -79 55 -148 102 -154 104 -5 2 -12 7 -15 11 -3
3 -41 31 -85 60 -44 30 -82 57 -85 60 -3 4 -50 37 -105 74 -90 60 -165 112
-350 241 -33 23 -170 117 -305 210 -135 93 -247 171 -250 174 -3 3 -13 11 -22
16 -9 6 -72 48 -139 95 -258 179 -305 212 -344 237 -22 14 -41 30 -43 34 -2 5
-10 9 -17 9 -7 0 -15 3 -17 8 -1 4 -43 34 -93 68 -49 33 -110 75 -135 92 -25
18 -85 60 -135 94 -49 33 -106 73 -125 87 -115 85 -206 108 -297 75z m389
-746 c8 -7 21 -17 30 -23 10 -5 52 -34 95 -64 43 -30 116 -81 163 -114 47 -32
138 -95 203 -140 65 -45 128 -89 141 -97 13 -8 48 -32 77 -53 30 -21 106 -74
169 -117 63 -44 120 -83 125 -88 6 -4 48 -34 95 -65 124 -84 247 -169 400
-276 74 -52 171 -119 215 -149 44 -30 166 -114 270 -187 105 -72 235 -162 290
-200 55 -38 102 -71 105 -74 3 -3 13 -10 22 -16 58 -34 288 -199 288 -207 0
-5 -13 -17 -30 -26 -16 -9 -30 -20 -30 -24 0 -5 -5 -8 -10 -8 -6 0 -35 -18
-65 -40 -30 -22 -58 -40 -64 -40 -5 0 -11 -4 -13 -8 -1 -5 -32 -29 -68 -54
-36 -24 -108 -74 -160 -110 -52 -36 -129 -89 -170 -117 -41 -29 -93 -65 -115
-79 -22 -15 -41 -30 -43 -34 -2 -5 -10 -8 -17 -8 -7 0 -15 -3 -17 -7 -1 -5
-16 -17 -33 -29 -16 -11 -75 -51 -130 -89 -97 -67 -154 -106 -387 -268 -62
-43 -138 -94 -168 -115 -30 -20 -57 -39 -60 -42 -3 -3 -32 -24 -65 -46 -33
-23 -233 -161 -445 -307 -212 -146 -413 -285 -448 -309 -35 -24 -69 -47 -75
-53 -7 -5 -37 -27 -67 -48 l-55 -38 -3 497 c-1 274 -1 499 1 500 2 2 163 4
358 4 394 1 393 1 444 69 62 85 31 197 -67 235 -32 13 -95 16 -388 16 l-350 0
0 180 0 180 613 1 c336 0 619 2 628 4 30 6 67 30 94 63 62 74 27 199 -64 235
-37 15 -107 17 -656 17 l-615 0 0 200 0 200 358 0 358 0 45 29 c56 35 79 79
74 142 -4 58 -34 102 -90 129 -39 19 -62 20 -393 20 l-352 0 0 540 c0 530 0
541 19 530 11 -5 26 -16 33 -22z"/>
</g>
</svg>
